/* XPM */
static char *_92e96e0d1724be5a27cf475b0d26209MiTohsgQ8T56zBQF[] = {
/* columns rows colors chars-per-pixel */
"64 56 172 2 ",
"   c None",
".  c #040604",
"X  c #070907",
"o  c #05060B",
"O  c #07090D",
"+  c #0B0C0D",
"@  c #110F0C",
"#  c #130E06",
"$  c #0F100E",
"%  c #10100F",
"&  c #1B160A",
"*  c #1F190C",
"=  c #1B1407",
"-  c #070A11",
";  c #0B0D12",
":  c #0E1013",
">  c #0C1018",
",  c #131314",
"<  c #171816",
"1  c #181917",
"2  c #161718",
"3  c #171819",
"4  c #1B1B1B",
"5  c #231C0D",
"6  c #291F0D",
"7  c #231F16",
"8  c #350707",
"9  c #1F201F",
"0  c #2A230E",
"q  c #3B2804",
"w  c #2E2513",
"e  c #23211B",
"r  c #272215",
"t  c #302713",
"y  c #322810",
"u  c #1E1F20",
"i  c #1F2021",
"p  c #232323",
"a  c #272826",
"s  c #282927",
"d  c #262728",
"f  c #272829",
"g  c #2C2D2D",
"h  c #2F3030",
"j  c #333333",
"k  c #3C3D3A",
"l  c #383837",
"z  c #432E05",
"x  c #482F01",
"c  c #532F02",
"v  c #4D3305",
"b  c #4D3B0D",
"n  c #513807",
"m  c #5A3D04",
"M  c #573B06",
"N  c #3F403F",
"B  c #5B4007",
"V  c #5E4209",
"C  c #644203",
"Z  c #6F4A05",
"A  c #694707",
"S  c #734D03",
"D  c #704E09",
"F  c #7B5303",
"G  c #755408",
"H  c #40413F",
"J  c #3F4141",
"K  c #434444",
"L  c #464748",
"P  c #474849",
"I  c #4A4B4C",
"U  c #474847",
"Y  c #4E504F",
"T  c #50504F",
"R  c #4E4F50",
"E  c #4F5050",
"W  c #535454",
"Q  c #585957",
"!  c #575958",
"~  c #5B5C5B",
"^  c #575957",
"/  c #605F5E",
"(  c #5F605E",
")  c #60615F",
"_  c #5E5F60",
"`  c #5F6061",
"'  c #636564",
"]  c #666867",
"[  c #666768",
"{  c #676868",
"}  c #6B6C6C",
"|  c #696A67",
" . c #6F706F",
".. c #6E6F70",
"X. c #6E7070",
"o. c #737474",
"O. c #777877",
"+. c #767778",
"@. c #777878",
"#. c #797B7A",
"$. c #7D7E7E",
"%. c #7A7C7C",
"&. c #AB0000",
"*. c #B90000",
"=. c #825603",
"-. c #845A03",
";. c #8B5A03",
":. c #925C04",
">. c #975B03",
",. c #8C4F04",
"<. c #A45C02",
"1. c #8D6504",
"2. c #936403",
"3. c #9B6B03",
"4. c #9C6204",
"5. c #A96502",
"6. c #A16D03",
"7. c #AC6B02",
"8. c #A36904",
"9. c #B76B02",
"0. c #A47002",
"q. c #AB7403",
"w. c #AD7A03",
"e. c #B47403",
"r. c #BB7602",
"t. c #B47C03",
"y. c #BD7C02",
"u. c #C17E01",
"i. c #C97801",
"p. c #49EE3F",
"a. c #7F807F",
"s. c #BD8402",
"d. c #B78403",
"f. c #C38401",
"g. c #CE8201",
"h. c #CB8B01",
"j. c #C38A01",
"k. c #D58D01",
"l. c #E6D654",
"z. c #7D7F80",
"x. c #7E8080",
"c. c #1DBDEB",
"v. c #5DD3E4",
"b. c #4BE3F9",
"n. c #818282",
"m. c #868682",
"M. c #878783",
"N. c #838585",
"B. c #828483",
"V. c #888884",
"C. c #898985",
"Z. c #8B8B87",
"A. c #898986",
"S. c #868788",
"D. c #868989",
"F. c #8C8C88",
"G. c #8E8E8A",
"H. c #8B8C8B",
"J. c #8F908C",
"K. c #91918E",
"L. c #8D8F90",
"P. c #8F9192",
"I. c #949592",
"U. c #979795",
"Y. c #929494",
"T. c #979895",
"R. c #959798",
"E. c #9E9E9D",
"W. c #9B9D9C",
"Q. c #979998",
"!. c #9D9FA0",
"~. c #A4A6A7",
/* pixels */
"< < < < < < < < < , < < < < < , < < < < < < < , < < < < < < >   < < < < < < < < < < < , < , < , < < < < < < < < , < < < , < >   ",
"m.U.E.W.I.J.F.J.J.K.F.F.Z.M.Z.K.G.Z.Z.J.G.K.U.K.T.T.W.E.E.E.E.E.U.U.U.T.T.U.U.T.U.T.U.I.K.F.J.F.V.V.V.F.V.V.V.V.V.m.M.F.M.M.m.M.",
"M.K.I.J.J.Z.N.S.m.F.V.M.M.m.M.F.M.Z.m.G.M.M.M.M.V.m.C.F.M.m.m.m.m.m.M.m.V.C.C.F.C.J.F.F.C.M.V.F.M.M.m.F.V.m.V.S.V.m.M.F.m.m.m.m.",
"k k k k k k k k k k k k k k k k k k k k k k k k k k k k k k k k k k k k k k k k k k k k k k k k k k k k k k k k k k k k k k k k ",
"g g g g g g g g g g g j g g g h g g g g g h g g g g g g g g g g g g g g g g g g g g g h h g h h g g g g g h h g g g g g g g g g ",
"U } } ..{ } k g I ^ ' } %.%.#.%.#.#.#.#.' 4 4 j j j j j g 4 4 4 4 4 g h j j j j 4 , k O.z.a.a.z.a.m.n.a.a...` Q K } } X.| | k j ",
"Q z.n.#.X.X._ h k I T Q ] ] ] ] [ [ ] [ [ K + + j I I I I g 4 + 1 g I I I I j # + , [ [ } [ } [ | | | [ | ~ W P ~ z.N.#.X.X./ h ",
"' B.$.[ [ [ W k l k U T Q Q Q Q ^ Q Q ! ~ Q Q ; # X I I I I s + s I I I I + + + U ] / ~ ~ ~ Q ~ Q ~ ~ ~ ~ T P J ` B.%.[ [ [ W k ",
"_ z...` ` ` W j k L T ~ ] ' ' ' ' ' ' ' ' ' ~ ' , + + I I I I g I I I I + ; % ^ ~ ' ' ' ' ' ' ' ' ' ' ' ' ^ I U ' z..._ ` ` W j ",
"` z...` [ ' W g + + + , % , % , , , , , @ g ..` } 4 + + I I I I I I I ; + 1 ' ` [ j 1 4 4 4 4 4 4 4 4 4 4 1 2 , [ #...' [ ' W h ",
"} x.} [ } [ _ j l K I W ~ Q Q ~ Q ~ ~ Q / < 7 } [ ..d + ; I I I I I ; + 4 [ ' [ p 4 ~ Q Q Q Q ~ Q Q Q ~ ~ W I K [ z.} [ } [ _ j ",
"} S...[ } } _ g R ~ [ +.N.N.N.z.$.B.n.$.$.o.u 3 [ [ X.g + g I I I g + g } ' ' 7 7 X.z.z.a.%.a.a.a.a.$.$.#.o.[ ! } N...[ } { _ g ",
"[ x.+.{ } ..! u K I Q ' } } } } } .. .} } O.N.g X } } +.+ g I I I g ; } [ } , g N.+.[ } } } } } } } } } ..` ! I { D.X.{ } .._ u ",
"[ D.......X.~ 4 K I ~ ' o...X.X.X.o.o.o.o...#.D.j @ X.o.+ g I I I g % } } 1 h S.%.} } } ..} ..} } } } } X.` ! R { D.o.......! u ",
"` D.+.o.X.o.` 4 K W ~ } o.o.o.O.+.+.#.O.O.+.+.n.n.@ o.#.; , j I j , + } } , N.a.X.X.X.X.X.o.....X.} o. .X.` ! I ` L.o.X.X.o._ u ",
"..L.+.z.#.z.[ 4 K T ~ [ o.+.O.#.O.O.O.O.O.O.+.+.#.4 O.#., , h I j ; , } ..< S.B.o.o.o.o.o.o.o.o.+.o.o.o.X.[ _ E } L.z.+.z.x.` > ",
"{ L.+.+.+.z.` > K T ~ } +.+.O.O.O.O.O.+.+.O.O.o.#.4 +.o.4 , , h : % < } o.< D.H.o.O.O.o.O.O.o.O.+.o.+.o.o.} ~ W [ L.#.@.+.#.{ 2 ",
"` P.z.+.@.z.X.> K W ( } +.+.O.O.+.O.O.O.o.O.o.O.O.9 o. .%.s ; , , p X.} +.4 N.Z.o.o.o.O.o.o.O.o.+.+.+.O.+.} ~ W ] Y.#.#.#.#.} > ",
"} Y.z.+.a.a.X.: K W ~ } o.o.O.O.+.o.o.o.o.o.o.o.+.4 T  . .o., : , [ ..o.W < S.G...o.o.o.o.O.o.O.o.o.o.o.o.} ~ T [ Y.#.#.$.$.X.; ",
"[ P.z.+.a.@.} : U W ~ { o.o.o.o.o.o.o.o.o.o.o.o.o.| p )  .O.d 4 s o. .) p ] o.#.o. .o.o. .o.o.o.o.o.o.o.+.[ ~ T ' L.#.@.%.@.} : ",
"` P.a.+.@.@.X.2 U Y ~ [ X.+.X.X.o. . .o. .o.o. .o.o.Q 4 } } +., ..X...4 W $.U...o.o. .o. .o.o.o.o.o.o.o. .[ ~ W ' P.%.+.%.@.X.2 ",
"{ R.@.+.a.@.X.9 K Y Q ] X.X.X.X. ...o. . . .o. . . .o.H s  .o.a } o.d k +.H.z.} .. . .' ' | } } }  . . . .] Q T { R.%.+.$.%.X.i ",
"` R.x.a.a.o.{ : K I ! ' X.X. . ....... . . ... . . .} o.a o. .e  .o.p o.S.o.} } } ..s 8 p d g g g s k k N U Q I ` P.x.%.%.+.} : ",
"` R.x.o.a.a.X.3 J Y ^ '  .X. . . .} } } } } } } } } } o.g o. .e o.+.a o.H.} } ..} ..7 &. .N } p.| }  .I / l Q T ` Q.S.+.%.%. .2 ",
"` R.x.x.x.x.} i J W ! ` ..} ..} } } } } } } } } } } }  .g o. .1 o.#.e +.F.[ } } } } 4 ]  .l.} p.|  .b.v.@.l ! I { Q.D.@.x.a...i ",
"` W.x.@.@.X.{ i J J ! ` } } } } }  .}  .} } }  . .}  .o.g o. .1 o.#.4 o.H.{ } } } } p &.| N }  .] ] b.v.a.l ! I ` R.x.o.@.+.} i ",
"` R.P.x.@.x.X.i J Y ! `  .} } } } } } } } } } } } | |  .g O.o.p o.%.7 o.D.] } } } } p ' | l.| 4 9 ) ] ' a.h ! I [ Y.L.a.@.a.{ i ",
"` R.x.@.@.x.X.i J Y ! ` } } X.} } } } } } } } } }  . . .g o. .1 o.#.p +.G.} } } } ] l *.| H | 7 4 ' ] ( D.h ! I ` R.D.+.+.@.X.i ",
"{ R.x.x.+.o.X.i J Y ! ` } } } } } } } } } } } } } | } o.s O. .p o.$.9 o.F.] } } } ( g ( ] l.} ] | ' c.Y Y.h ! I ` R.x.@.+.@.X.i ",
"` R.x.+.@.@.o.i J J W ` } } } { } | | } } [ | | } | }  .g O. .a o.a.4 o.H.' } { { ^ f } ] K ) p p ] c.T Y.j W I { R.x.@.@.o.o.i ",
"X.L.x.a.@.@.X.i J I W ` ` } { } | [ } [ [ | [ | [ | [ } g O...4 O.x.e X.H.) ] ] } ( h D.U.U.R.Y.P.J.I.N.P.J W Y X.Y.x.@.@.@.X.i ",
"o.R.@.+.o.X.X.i J I W ` { { } { [ [ [ [ ] [ [ ] | [ | } s O...g O.n.4 o.H.( ] ] ] ] ] o.$.O.@.X.o.o.o.o.o.W W J X.R.@.@.o.o.o.i ",
"..Y.o.+.X.X.} u H U T ~ ' ] ] ] ] | ] ] ] ] ] | ' ] ] } g O.} g o.n.4  .G.~ ' | ) ] ] ] ) | | ] ] ] ] ] } ~ W U  .I.+.@.X.X...i ",
"[ Y.X.X.X.X.` u k U T ~ ' ' ' ' ) ) ) ] ) ) ) ) | | ( } s O.} s o.n.9 } #.( } | ) ) ) ] ] ) ) ] ) ] ] ) ) ~ T U ] U.X.X.X.X.' 4 ",
"` S.} } } } _ u l K T Q ' ) ) ) ) ] ) ) ) ) ) | X % K.| g O.} s o.m.4 } O.| X , a.( ) ) ) ) ) ) ] ) ) ) ) Q T I ~ S.} } } { ~ i ",
"! z.{ { [ [ R u l K I Q ) ) ) ( ) ) ( ( ( ) ) ) % s ~.o.s O.} s  .n.9 } O.' % j W. .( ( ) ) ) ) ) ) ) ) ) Q Y U ~ #.{ { { { E u ",
"! x.+.` ' ' L u l K I Q ) ) / ) ) ( ( ( ) ) ) ~ n.E.~. .g O.} s o.n.4 } #.^ n.E.E.] ) ) ) ' ( ) ) ) ) ) ) Q Y N ! z...[ ` ` P u ",
"L x.R.x.o.+.j i l H I T ~ ~ ~ ~ ( Q ( Q Q ~ Q Q Q ) Q ' s O.} p o.n.e } O.Q ^ ^ W ~ ~ ~ ~ ~ ~ ~ ( ) ~ ( ) W Y K P S.Y.x.+.+.j i ",
"f z.z.z.o.X.1 e , 1 4 e p e p p e 9 e p p p p p p p p p 2 #.} p o.m.X 2 , 4 4 9 4 4 4 1 1 1 1 4 1 1 1 1 1 1 % % h +.z.z.+.X.3 i ",
"u u u j K J h h U ^ ' o.$.$.$.$.a.a.a.a.%.a.%.a.a.a.#.a.a.o.o.p O.O.n.n.n.n.n.n.m.n.n.B.n.n.n.n.a.a.m.n.n.o.| ~ u u i j J J h h ",
"l } z.x.z.[ _ i K I Q ] X.X.X.X.X. . . .}  .}  ...........} } .  .} } X.} ..................} .. .o.X.X.X.' ~ E l { z.x.z.[ _ i ",
"j z.z.z.o.` ! u 4 u d d i 4 2 , : + : , 4 4 p d p d d p p p 1 . 4 4 u s h h g h g g g s i 4 1 , + + : , 4 1 4 3 l z.z.z.o.` _ u ",
"d z.z.[ ` [ _ u c # o + O ; m r.8.4.5.;.* O + + 5 >.9.9.r.g.M . + + + v i.9.<.<.,.= o @ o ; m r.5.4.5.:.* O + X d z.z.[ [ ' ! u ",
"i x.......} ` u # o X - & Z g.u.y.i.0.0 - , - 0 q.u.q.e.k.D ; X , : B 9.<.<.9.>.5 o + o & D g.f.y.u.0.0 - : O & i x...} } ..` i ",
"f P.z.X....._ 4 . X O & ;.h.j.s.k.t.t ; , ; w t.u.e.e.u.D ; , X 2 b k.7.7.7.>.6 o + - * ;.h.f.f.k.t.t ; , O 0 F d P.z.X....._ 4 ",
"h Y.N.%.z.z.^ 4 + O * 2.e.s.s.h.d.t > : ; t t.f.q.q.t.D > , , X e 6.h.q.t.4.6 ; , ; 6 6.e.s.s.j.t.t ; < > 0 1.-.g R.N.#.z.#.^ 4 ",
"g P.x.$.$.x.! 3 o & F 6.6.t.s.w.w > 2 : w q.j.w.w.q.A ; 2 < > X t 1.d.w.3.w - , ; 7 4.t.6.t.s.w.t > 2 ; 0 3.3.G g Y.N.%.$.z.^ 3 ",
"h Y.S.+.+.%.E 4 # m F =.:.3.1.w - , > t 3.q.w.0.0.B - % , ; C X w G 8.;.7 ; @ ; 5 =.4.:.;.6.2.w ; , > t 3.3.1.Z h Y.N.+.+.$.E 4 ",
"h R.N.X.o.+.P 3 z B C S ;.F 5 - , - 5 ;.2.;.2.2.n - ; + ; M 2.X e F =.5 - % o 5 S =.=.=.-.F 5 ; , - 5 ;.4.F S C g I.S.+.o.+.U 3 ",
"f P.x.%.+.@.K 4 v v m C z 5 ; + - 6 =.;.=.=.;.n + + + + n 2.F X e A 5 o + O & S F Z Z S z * - $ ; 6 =.;.=.S S q s P.x.+.+.@.J 9 ",
"i x.D.+.@.%.J e q x n z o ; : + 5 S =.F F -.n ; ; + ; z =.=.S X r 5 - ; + & B S C C A z + ; $ ; 5 S =.F F S q o d x.S.%.@.%.J e ",
"d +.x.X.o.o.N e , 1 4 4 4 < , + + X + > , 2 4 4 4 i i i 4 4 , . 2 , 1 u d p p d p p p u 4 , , + + X + : , 2 2 2 d X.a.X.o.o.N e ",
"d { @.{ } { k 4 h l N I I I g 4 k E W E R W W W ^ E W W W E g p k W T T W W I W W W W T I Y g 4 k E W E W P K l d [ %.} { { N 4 ",
"h ` %.+.X.{ K 4 g j l K I U ; , f E I P P I L L I I I I I K > 2 d R I R I I I I P P P P I K : , d E I P P K l j g ` @.+. .{ J 4 ",
"N Y ] { ' ` k , , 1 4 4 4 4 , , , , 2 , < , 4 4 4 4 u 4 4 4 , , , , 2 u d p p p p p p u 4 4 , : , , 1 , 2 , , , N E { { ' ` k > ",
"> 2 2 9 4 3 2 >                                                                                                 < > 2 i 4 3 2 , "
};
