/* XPM */
static char *result[] = {
/* columns rows colors chars-per-pixel */
"64 32 63 1 ",
"  c #010000",
". c #0A0201",
"X c #030308",
"o c #130203",
"O c #CC7B0E",
"+ c #D1770B",
"@ c #D47B0E",
"# c #D8790F",
"$ c #CD7D11",
"% c #C97D19",
"& c #D97715",
"* c #D27A13",
"= c #D87812",
"- c #D17D1D",
"; c #D37C20",
": c #CD800E",
"> c #C78010",
", c #CC8012",
"< c #D38114",
"1 c #FBC43E",
"2 c #FFBE43",
"3 c #FFBE4C",
"4 c #FDBE54",
"5 c #FCBD5A",
"6 c #FDBE63",
"7 c #FBBF6A",
"8 c #F6C442",
"9 c #FEC346",
"0 c #F5C54D",
"q c #FEC24D",
"w c #FBC848",
"e c #EFCA51",
"r c #EEC45B",
"t c #F5C354",
"y c #FCC253",
"u c #F5C45B",
"i c #FAC25B",
"p c #E6C663",
"a c #EEC562",
"s c #EBC965",
"d c #EDC46D",
"f c #E4CA6C",
"g c #F3C462",
"h c #F9C362",
"j c #F2C965",
"k c #F2C36C",
"l c #F8C668",
"z c #EFC370",
"x c #F4C371",
"c c #F2C178",
"v c #FCF3AF",
"b c #FFEEB5",
"n c #FEEDBD",
"m c #FDF1B3",
"M c #FEF2BD",
"N c #FCF9BA",
"B c #FFEDC4",
"V c #FFEFCE",
"C c #FEF3C4",
"Z c #FEF2C9",
"A c #FFEFDA",
"S c #FEF0D2",
"D c None",
/* pixels */
"DDDDDDDDDDDDDDDDDDDDDDDDDDDDDDDDDDDDDDDDDD            DDDDDDDDDD",
"DDDDDDDDDDDDDDDDDDDDDDDDDDDDDDDDDDDDDDDDDD . .........DDDDDDDDDD",
"DDDDDDDDDDDDDDDDDDDDDDDDDDDDDDDDDDDDDDX   p5iiiiiiuihx.   DDDDDD",
"DDDDDDDDDDDDDDDDDDDDDDDDDDDDDDDDDDDDDDX...iyyyyyyyqqqio X.DDDDDD",
"DDDDDDDD        DDDDDDDDDDDDDDDDDDDD  a5hh$&&=*&&*###*iutj..DDDD",
"DDDDDDDD        DDDDDDDDDDDDDDDDDDDD oj433+**@@@#@@@@@39quoXDDDD",
"DDDDDDDD  qqyq  DDDDDDDDDDDDDDDDDDX ju03**333333334333*$4qwx. DD",
"DDDDDDDD  yqqq  DDDDDDDDDDDDDDDDDD .l0q3O$3q904t4y50q3$$yyyj. DD",
"DDDDDDDD  qqyq  DDDDDDDDDDDDDDDDDDX.lqOOy33tmSCCCM5w9qq4mZyg. DD",
"DDDDDDDD  yqqq  DDDDDDDDDDDDDDDDDD .73+Oqq90nCZMCMg3q390MZtj..DD",
"DDDDDDDD  qqyq  DDDDDDDDDDDDDDDD .s5%<3q3qw0nCuwyq%-4qq99ibb6d.X",
"DDDDDDDD  qyqq  DDDDDDDDDDDDDDDD  uq*@3q9qyuMA5yq3>$8449qtCC5a..",
"          qqqq          DDDDDDDD  uq*O9ymZBCBC5q9qqymntwwyCC5p  ",
"          4qyq          DDDDDDDD  u3*OqyMZSMCC489qqtmMtqqyCZ4r  ",
"  qqqqqyqqqyqyqyqqqyqq  DDDDDDDD .u2*$qyMMgtty3qqq999q:-qyCCys. ",
"  qyqyqqqyqyqqqqqyqqqy  DDDDDDDD  u3*$2yCM4qq9qqyqq9q3O$yyCCye. ",
"  yqqqyqqqqqyqyqqyyqqq  DDDDDDDD  u3**qyMC4q9qqyyqqqq3$$3ynC4r. ",
"  qqyqqqyqyqyqqqqqqqyq  DDDDDDDD  h3$O9yMBh9q9qqq9qy43$$3yCC4r. ",
"          qyq4          DDDDDDDD  g4*$39yi%$9qqq9q<<***@3yCCis  ",
"          qqqq          DDDDDDDD .u3$$q9qq:Oqytqqq<*@*$O3yCCyr. ",
"DDDDDDDD  qqyq  DDDDDDDDDDDDDDDD .r9*Oq9qqyiMCywqy<-34333yCCya. ",
"DDDDDDDD  qyqq  DDDDDDDDDDDDDDDD  p5*@3qq9qiNCi233$,33qq9iMMraX ",
"DDDDDDDD  qqqy  DDDDDDDDDDDDDDDDDD  h4*,qyywwi,&****3qqinBjdo.DD",
"DDDDDDDD  qyqq  DDDDDDDDDDDDDDDDDD Xuq<,qyyw9q**&**,329jnbut.XDD",
"DDDDDDDD  qqqy  DDDDDDDDDDDDDDDDDD .u8yinmt8wyyy44ywqtbBst0k.XDD",
"DDDDDDDD  qyqy  DDDDDDDDDDDDDDDDDD .duwybneq5yyyyyytyumvi1uc.XDD",
"DDDDDDDD  qyqq  DDDDDDDDDDDDDDDDDDDD .u407nCZCCCCCCZZCr4yu..DDDD",
"DDDDDDDD        DDDDDDDDDDDDDDDDDDDD .f6urnNMCCCCCCCMMr5ik..DDDD",
"DDDDDDDD        DDDDDDDDDDDDDDDDDDDDDDX ..z5wyyyyyyyqio.. DDDDDD",
"DDDDDDDDDDDDDDDDDDDDDDDDDDDDDDDDDDDDDD   .f6hiuiiiuujz..X.DDDDDD",
"DDDDDDDDDDDDDDDDDDDDDDDDDDDDDDDDDDDDDDDDDDX .   ..    DDDDDDDDDD",
"DDDDDDDDDDDDDDDDDDDDDDDDDDDDDDDDDDDDDDDDDD        X  .DDDDDDDDDD"
};
