/* XPM */
static char *_ff88bbde21d48e0f5e473f13371db9amNsMozz3O7pFg7mk[] = {
/* columns rows colors chars-per-pixel */
"64 56 121 2 ",
"   c None",
".  c #040404",
"X  c #070808",
"o  c #0B0C0C",
"O  c #0E0F10",
"+  c #131313",
"@  c #161718",
"#  c #171818",
"$  c #1B1B1B",
"%  c #221F19",
"&  c #242019",
"*  c #1E1F20",
"=  c #1F2020",
"-  c #222323",
";  c #272828",
":  c #2D2E2E",
">  c #2F3030",
",  c #323334",
"<  c #3D3D3A",
"1  c #3F4141",
"2  c #424344",
"3  c #464748",
"4  c #474849",
"5  c #484949",
"6  c #4F4F50",
"7  c #535455",
"8  c #565959",
"9  c #595B5B",
"0  c #5E5F60",
"q  c #5F6061",
"w  c #636465",
"e  c #666768",
"r  c #666868",
"t  c #6A6C6C",
"y  c #6E6F70",
"u  c #6E7070",
"i  c #737475",
"p  c #767778",
"a  c #777879",
"s  c #7A7C7C",
"d  c #7D7F80",
"f  c #7E8080",
"g  c #808182",
"h  c #808183",
"j  c #808282",
"k  c #818383",
"l  c #868682",
"z  c #868783",
"x  c #878783",
"c  c #838585",
"v  c #838486",
"b  c #838586",
"n  c #848687",
"m  c #858787",
"M  c #848686",
"N  c #888884",
"B  c #898985",
"V  c #898986",
"C  c #898A86",
"Z  c #8A8A86",
"A  c #8A8A87",
"S  c #8A8B87",
"D  c #8B8B87",
"F  c #858788",
"G  c #868789",
"H  c #868889",
"J  c #86898A",
"K  c #87898A",
"L  c #8B8B88",
"P  c #888A8B",
"I  c #8C8C88",
"U  c #8C8C89",
"Y  c #8C8D89",
"T  c #8D8D89",
"R  c #8D8D8A",
"E  c #8E8E8A",
"W  c #8E8E8B",
"Q  c #8E8F8B",
"!  c #8B8C8D",
"~  c #8F8F8C",
"^  c #8F908C",
"/  c #90908C",
"(  c #90908D",
")  c #91918E",
"_  c #92928F",
"`  c #8D8F90",
"'  c #8F9191",
"]  c #8F9092",
"[  c #8F9192",
"{  c #8F9191",
"}  c #929390",
"|  c #909192",
" . c #909292",
".. c #919393",
"X. c #949491",
"o. c #949492",
"O. c #949592",
"+. c #959593",
"@. c #959693",
"#. c #909394",
"$. c #929394",
"%. c #929395",
"&. c #929495",
"*. c #939595",
"=. c #929596",
"-. c #969694",
";. c #969794",
":. c #979795",
">. c #929495",
",. c #979895",
"<. c #999A97",
"1. c #959798",
"2. c #969798",
"3. c #969899",
"4. c #9A9B99",
"5. c #9B9C9A",
"6. c #9D9D9B",
"7. c #9D9E9C",
"8. c #9E9E9D",
"9. c #9E9F9D",
"0. c #9F9F9E",
/* pixels */
"o o o o o o o o o o o o o o o o o o o o o o o o o o o o o o o o o o o o o o o o o o o o o o o o o o o o o o o o o o o o o o o o ",
"l -.8.5.o.R R ^ ^ _ R I I B D _ R I D _ D _ _ _ @.,.<.9.9.9.8.9.,.@.@.@.,.@.@.@.@.<.@.X._ R / R x B B I l B B l B l B I B l l B ",
"l _ @.~ R D l D l I l B B l l I x B l I l B B B B l D I x l l l l l x B x Z Z I D / D R D l l D l B l I l l D l x l B I l l l l ",
"< < < < < < < < < < < < < < < < < < < < < < < < < < < < < < < < < < < < < < < < < < < < < < < < < < < < < < < < < < < < < < < < ",
": : : : : : : : : ; : ; : ; : : ; : : ; : ; : ; : : ; : : : ; : : ; : ; : : : : ; : : ; : ; : ; : : ; : : : ; : : : : : : : : : ",
"3 t t y t t < ; . . . . . . . . . . . . . . . . . . . . . . . . . . . . . . . . . . . . . . . . . . . . . . . . 2 t t u r t < > ",
"8 s c s t i 9 , . . . . . . . . . . . . . . . . . . . . . . . . . . . . . . . . . . . . . . . . . . . . . . . . 8 f k s t i 9 , ",
"w k s r e e 7 < . . . . . . . . . . . . . . . . . . . . . . . . . . . . . . . . . . . . . . . . . . . . . . . . w c s e e e 7 < ",
"q s u q q q 7 , . . . . . . . . . . . . . . . . . . . . . . . . . . . . . . . . . . . . . . . . . . . . . . . . w a t w w w 7 , ",
"e s t w w w 7 > . . . . . . . . . . . . . . . . . . . . . . . . . . . . . . . . . . . . . . . . . . . . . . . . e s t w w w 7 : ",
"t f t e t r 9 , . . . . . . . . . . . . . . . . . . . . . . X . . . . . . . . . . . . . . . . . . . . . . . . . r k t e t e 8 , ",
"t b y r t t q > . . . . . . . . . . . . . . . . . . o . . . X X . . . . . . . . . . . . . . . . . . . . . . . . t v t t t t 0 : ",
"r b u t t t 8 = . . . . . . . . . . . . X X . . . X X X X X X X . . X . X X . X . . . . . . . . . . . . . . . . r F u t t t 8 & ",
"e J u y y u 9 $ . . . . . . . . X X X X X . o o X . X . X X X X o . X X . X X X X . . X X . . . . . . . . . . . r P u y t i 9 $ ",
"e J p i i i q $ . . . . . X . . X X X X X X o . o . X X X X X X . X X . X X X X X X X X . X . X . . . . . . . . e P i u u u q * ",
"t ` s a s s w + . . . X . X X . X X X X X X . X . X X . X X X X X X X X X . X . X X X . X X X X . . . . . . . . t ` s s s d e @ ",
"e ` a a a s r @ . . X X X X . . o . X X X X X X X X X X X X X X X X X X X X X X X X X X X X . o o X X X X . . . e ) p s p s r + ",
"e [ s s a s t O . X . X . X o . X X X X X X X X X X X X X o X o X o X X X X X X X X X X X X X . . X X X X X . . e _ s s p s t + ",
"r [ s a s s u O . . . . X . X o X X X X X X X X X X X X X X X X X X X X X X X o X X X X X X o . X . X . X . X . e o.s p d s y O ",
"w [ s a f s t O . . . o X X X . X X X X X X X X o X X o o o o o o o X X o X X X X X X X X X . . X X X X X X X . e _ s p s a t O ",
"w [ s p s s u @ . . o . o . . o X X X X o o o o o o o o o o o o o o o X o o o o X X X X X X X o . X X X . X X . w %.s a s s u # ",
"r 3.s a s s u = . . . . . . o X o o o o o o o o o o o X o o o o o o o o o o o X X o o o X X o . X X X . o . . . r 2.s a s s u * ",
"q =.f s s a t O . . . o o . X o o o X o o o o o X o o o o o o o o o o o o o o o o X o o o o X X X X X X . . . . q %.k a s a t + ",
"w 3.F a s s u @ . . . . o o o o o o o o o o o o + o o o o o o o o o o o o o o o o o o o o o o o o X X X o . o . w 2.G a s a u @ ",
"w ,.n a s d u = . . X o o o o o o o o o o o o o o o o o o o + o + o o o o X o o o o o o o o o o o X X X X X X . e -.J i s s i $ ",
"w =.n p p p t = . X X o o o o o o o o o o o + o + + o + + o o + o + + o + + o + + o o o o o o o o o o o X X . . w %.c a a a t - ",
"w =.! s s s t = X X X o O o O o o o + o o + o + + o + + o + + + + o + o o + o + + o O o O o O + o o X o o o . . w =.! s s s t - ",
"w =.J p p p u - X X o o o o O o + + o + o + + o + + o + + + o o + + + + + o + + o + o + O o o o o o o o o o o . w %.J i a a t - ",
"w o.J a i a u - X X o o o O + o o o o + + o + + + o + + + + + + + + + o + + o + + O + o + o + o O o o o o o o o w =.J a i i u - ",
"r { k a a a u - X X o O O O o + + + + + + + + + + + o + o + + + o + + + + + + + O + + O + + o O O O o O o o o . e  .k a a a u - ",
"t { d s a p u - X X o o O O + o + + + + + + o + + + + + + + + + + + + + + + + + + O + O o + + o O O + o o o o o t  .s s a a u ; ",
"u =.a a i u u - X o o o + + + + + + o + + + + + + + + + + + + + + + + + + + + o + O + + + + + O + O O O o o X . i =.a p i u u - ",
"y %.i p i y y * o o O O O + + O O + + + + + + + # + + + + @ @ + + + + # + + + + + + + O + + + O + + O O o o o X y X.p p y y y % ",
"w %.i y y y w $ o o o O + + + + + + + + + + # + + # # # @ @ # # + % # + # + + # @ + + + O + O + + O + + + o o X e +.y y y y e % ",
"0 G t t t t 0 * o o o O + O + + + + + + # # # # # # @ # # # # # + # # # @ @ % + + @ + + + + + + O + + o + o o o 0 B t t t t 9 - ",
"9 s e e w e 6 $ o o O O + + + + + + # + # # # # # $ # $ # $ # # % # # # # @ % + @ # @ + + + + + + + + + + o + X 9 s e e e e 6 % ",
"7 h y e w w 3 % o o o o + + @ + # # # # # # $ % % $ # % # $ $ $ # $ $ @ % $ $ @ @ @ @ @ # + + + + + O + + o o o 7 d i w w w 3 * ",
"4 G %.h i i , - o o o + + + @ # # # # # # $ $ # @ # # # $ @ $ # % # $ $ @ # $ $ % # $ @ # # # + + + + + + O + o 4 G ] h i i , * ",
"> y d d i y % % o o + + + # # # $ # % $ # $ $ $ $ $ % $ $ $ $ $ $ $ $ $ % $ # $ $ # # # # # # # + # + + + + o o > i d d i i @ * ",
"$ * * , 2 1 : > o o O + # # @ @ $ # $ # # $ $ $ $ $ $ $ * $ $ $ $ $ $ $ @ $ $ $ # $ $ $ % # # # # + + + + O o o * * * , 1 1 > > ",
"< t d h p e 0 * o O + + % @ # % # $ $ $ $ $ $ $ $ $ $ $ - $ $ $ $ * $ * * @ * $ $ $ @ $ # $ # # # + + @ + O O o < e d h p e q - ",
"< p h d p w 8 * o O + + # # # $ # $ $ $ $ $ * $ = $ - $ = $ * * % * $ * % * $ $ $ $ $ $ $ # $ # # % @ @ @ O O o < p h d p q 8 * ",
"; d y e w w 0 * o + + @ % % # # % $ $ @ $ * * $ $ * * = - = = = * % * * * * $ % * $ $ $ $ $ $ $ % # # # + + O o ; d i e e w 0 * ",
"; v i t y y q % O O + # # # $ $ $ $ * * * * % * = = * = = & = = * * * * * * * % $ * $ $ $ $ # $ $ # # + % + + o - v i t t y 0 % ",
"; | d y y i 9 % O O + # $ $ $ $ $ $ * * $ * * * = = - = - * & - * * - * * * * - * * % * $ $ $ $ $ # % @ # + + O ; ] d y y i 0 % ",
"> %.F s s s 9 $ O O + # # $ $ $ * * $ % * * * * = - = - - - - - * - - * - - * * * % * * * $ $ $ # $ $ @ # @ + O : %.G s d p 8 @ ",
": %.k s s d 7 $ O + + # $ $ $ * * % * * * - - - - = = - - - - - ; * * - - * - * * * * * * * $ $ % # $ $ # # + O : %.v s s d 8 $ ",
"> %.F p p s 6 $ O + # # $ $ $ * * * * * - * - - - - - - - - - - * ; ; * - - - - * * * * $ * $ $ $ $ $ # % + + O > | v p p s 6 $ ",
": -.b i i i 5 $ O + + $ $ $ = $ $ - - = = - - - - - - ; - - - - - - - - - - - - - = = = - $ $ * * * $ @ $ @ + + :  .c i i i 5 $ ",
"; ` b p p a 3 # o + @ # $ - $ - - - & = = ; - - - - - - ; - - - - - ; - - - - ; - = - = - * - $ $ @ $ $ # @ + + ;  .c p a a 3 $ ",
"- d c a p s 1 & + + + # = $ - - $ - - - - - - - - - - ; ; - - ; ; - - - - - - - - - = & = - * * * $ $ $ $ @ + + ; s l i a s 1 & ",
"; i d i i i 1 $ o + # $ $ = = = - - - - - - - ; ; - ; - - - ; - - ; ; - - ; - - - - - - - * = * $ * $ * # @ + + ; i d i i p < % ",
"- r a t t r < * + + @ $ & = - - - - - - - ; - ; - ; ; ; - ; ; ; ; ; ; - ; ; - - - - - - - - = = * % * $ $ @ + + ; r a y t t < $ ",
"> q s i y e 1 * + + @ $ & = - - - - - - ; - - ; - ; ; ; - ; ; ; ; ; ; - ; ; ; ; - - - - - - = = * % * $ $ @ + + : 0 s u t r 1 $ ",
"< 6 r t w q < O + + @ $ & = - - - - ; - - ; ; ; - ; ; ; - ; ; ; ; ; ; - ; ; - ; ; - - - - - = = * % * $ $ @ + + < 6 e t q 0 < O ",
"@ + @ * @ $ @ + + + @ $ & = - - ; ; ; ; - ; - ; - ; ; ; ; ; ; ; ; ; ; ; ; ; ; ; ; ; - - - - = = * % * $ $ @ + + @ + @ * * * @ + "
};
