/* XPM */
static char *f6ed1791560f4e16e2b550dd7f7d23fa5gglXhGXuIQ8p5Nf[] = {
/* columns rows colors chars-per-pixel */
"64 64 142 2 ",
"   c #070707",
".  c #06070D",
"X  c #07090D",
"o  c #0B0C0D",
"O  c #110F0E",
"+  c #1B1407",
"@  c #14120F",
"#  c #1C150A",
"$  c #1F190C",
"%  c #070A12",
"&  c #0B0D12",
"*  c #110F13",
"=  c #0E1014",
"-  c #0D1018",
";  c #131314",
":  c #181614",
">  c #161618",
",  c #171819",
"<  c #1A1B1C",
"1  c #231C0D",
"2  c #2A1F0D",
"3  c #261E11",
"4  c #27210D",
"5  c #2E230B",
"6  c #3B2605",
"7  c #3F2804",
"8  c #352208",
"9  c #262111",
"0  c #2E2511",
"q  c #302713",
"w  c #322910",
"e  c #1E1F20",
"r  c #1F2021",
"t  c #222324",
"y  c #262728",
"u  c #272829",
"i  c #2C2D2E",
"p  c #2F3031",
"a  c #323334",
"s  c #3A3B3B",
"d  c #432E07",
"f  c #4D3507",
"g  c #543605",
"h  c #523907",
"j  c #593D07",
"k  c #5A3F09",
"l  c #653C04",
"z  c #6C3E03",
"x  c #713E02",
"c  c #5B4007",
"v  c #5F430A",
"b  c #634305",
"n  c #6A4303",
"m  c #6E4B06",
"M  c #614508",
"N  c #654A0B",
"B  c #6B4C09",
"V  c #744203",
"C  c #7D4502",
"Z  c #734C04",
"A  c #7A4B02",
"S  c #704E09",
"D  c #705607",
"F  c #7C5203",
"G  c #71530A",
"H  c #444646",
"J  c #464748",
"K  c #4A4B4B",
"L  c #4E4F50",
"P  c #4F5051",
"I  c #525353",
"U  c #565758",
"Y  c #565A5A",
"T  c #5B5D5D",
"R  c #5E5F60",
"E  c #5F6161",
"W  c #636464",
"Q  c #666768",
"!  c #666868",
"~  c #6A6C6C",
"^  c #6D706F",
"/  c #6E6F70",
"(  c #6E7070",
")  c #737474",
"_  c #767778",
"`  c #777879",
"'  c #7A7B7C",
"]  c #824B01",
"[  c #8B4E03",
"{  c #825603",
"}  c #8F5402",
"|  c #845903",
" . c #8A5B02",
".. c #905404",
"X. c #935C03",
"o. c #9A5E02",
"O. c #A45C02",
"+. c #8E6102",
"@. c #946302",
"#. c #9C6303",
"$. c #9B6B03",
"%. c #9F7002",
"&. c #A46602",
"*. c #A96502",
"=. c #A36C02",
"-. c #AC6B02",
";. c #B56601",
":. c #B46C02",
">. c #BB6E02",
",. c #A57103",
"<. c #AB7403",
"1. c #AD7A03",
"2. c #B37502",
"3. c #B67402",
"4. c #BB7601",
"5. c #BA7603",
"6. c #BE7701",
"7. c #B47D03",
"8. c #B27904",
"9. c #B57C05",
"0. c #B87A02",
"q. c #BC7C03",
"w. c #BF7E02",
"e. c #CC7401",
"r. c #C07D01",
"t. c #C17E01",
"y. c #C87A01",
"u. c #B78403",
"i. c #BD8402",
"p. c #C58001",
"a. c #C28501",
"s. c #C48502",
"d. c #CD8201",
"f. c #CF8301",
"g. c #C38A01",
"h. c #C28E02",
"j. c #CC8A01",
"k. c #D78A01",
"l. c #D38F01",
"z. c #D59E01",
"x. c #7F8081",
"c. c #818383",
/* pixels */
"< < < < < < < < < , < < < < < , < < < < < < < , < < < < < < >   < < < < < < < < < < < , < , < , < < < < < < < < , < < < , < >   ",
"W ) ~ ) ^ ( ^ ^ ~ ~ ^ ( ^ ( ~ ( ( ^ ( ( ^ ^ ^ ( ( ( ( ( ^ ^ T a W ) ^ ^ ( ) ^ ^ ~ ~ ( ) ( ( ~ ( ) ( ) ( ^ ^ ^ ^ ) ( ^ ^ ( ) T a ",
"~ ! W W W W W W ! W W W W Q ! Q Q Q Q Q Q Q E Q E Q Q Q Q Q I s ~ ! ! Q W W W W W W W W W Q W Q E Q ! Q Q W W W W W W Q W W U s ",
"~ W W W W W W R W W W R E E W E E E E E E E E E E E W E E W I a ~ W W E E W W W W W W E W E W E E W W E E E W E E E W W W W I a ",
"e < < , < , < < , , , , < , , , < , , < , > , , < , , , , , >   < < < < < , , , , , , , , , , < , < < < , , , , , , , , : , : X ",
"< < < < < < < < < , < < < < < , < < < < < < < , < < < < < < >   < < < < < < < < < < < , < , < , < < < < < < < < , < < < , < >   ",
"e < e < < < e < < < < < < e < < < < < < < < e < < < < < < < <   < < < < < < < < e < < < e < < < < < < < < < < < < < < < < < ,   ",
"e e < e < < e < e e < e e e < < r < r < r r < < < < r e < e <   e t e e < e r < < < e < e e e 3 < e < r < e < e e e e r < r <   ",
"' x.` _ _ ' ` ` ) ) ) ) ` ` ) ) _ _ ) ' ` ` _ _ _ ` ` ` ' ` ) y ' x.` _ _ ' _ _ ` ) ) ` _ _ _ ) _ _ _ ` _ _ ) ) _ ` ` ' ` ` ) t ",
"' ` _ _ _ _ _ _ ) ` ) ` ` ` ` ) _ _ ( ' _ ` _ ( ) _ ) ` ' ' ( r ' ' ` ) ) _ _ _ ) ` ) ` ) _ _ ) _ _ _ ` _ _ ) ) ) _ ` ` ' ' ) t ",
"` ` ( ( ( ( ( ( ( ( ^ ~ ( ( ^ ~ / / ~ ( ( ( ( ~ / ( ~ ~ ) / E r ' ` ^ ^ ( ) ( ( ( ( ~ ~ ( ( ( ~ ~ / / / ~ / / / ~ ^ ~ ~ ) ~ W < ",
"( ( ! ! Q ! Q Q W W W ! ! ! W W Q ! Q ~ Q Q E Q Q Q Q ~ Q Q U e ( ( ! ! ! ! W Q W W W ! Q Q W W ! Q Q Q E W Q Q ! ! ! W ! ! U e ",
"( ( Q W W W W W W W W Q W W W W E W W Q W W Q E E E Q E E Q J e ~ ~ W W W W W W W W W W E W W W W W E W W W W E W W W W W W H < ",
"U ` _ ) ` _ _ ( ) ) ( ( ) ) ) ( ) ' ) _ _ ( ) ( ) _ _ ' ` ( a r U ' _ ` ' _ _ ) ) ) ) ) _ ( ) ( ) ) ) / / ) ) ) ) ) ( ( ' ) a t ",
"a ~ W Q Q Q Q W E W W E Q Q W E E E R Q E W E Q Q E E Q Q R > 9 a ! W W W W W W E W E W Q W W W W W E W E W E R R E E Q W R : e ",
"< < 3 y p i i i i i i u i i i i u r r e > e r r y u u u r r e , < < t y a i p i i i i u i i i i u r t e > e r y y u y y t t , , ",
"K ~ ! Q ! ~ ! ~ ~ ~ ! ~ W W W W W W E Q Q ! ~ ! ~ ! ! ! ~ ! s u K ! ! ! ! ! ! ~ ~ ~ ! ! W W W W W W W Q Q ~ ~ ! ~ ! ! ~ ~ ! s i ",
"W ) / / ( ) / / ~ ~ ( ( ( ( ( ~ ( ( ~ ^ ( ^ ~ ( ^ ) ^ ) ( ( T a W ) ) ^ ) ) ^ ^ ~ ~ ( ) ) ~ ) ! / / ~ / ( ~ ~ ( ( ( ( ( ( ( T a ",
"~ ~ Q Q W Q Q Q W Q W W Q Q Q Q W Q Q Q Q Q Q E W W W ! W W U s ~ ~ ! W W ! ! W ! Q W W W ! W W W W W W ! W W W W W W ! W W I s ",
"~ W E W E W E E W W W E E W E E E E E E E E E E R E E W W W I a ~ W E W E W W R W E W R W W W W E W E W E E W E E W E W W W I a ",
"( ! W W W W W W W W W W W E E E Q E E E E E E Q W W R E E W I p ) ! W W W W W W W W E W W W W W W W W W W E W W E W E W E W I p ",
") ~ ! ! ~ ! ! W Q Q W W ! ! Q ! ! ! ! Q ~ Q Q E W ! ! W ! ! T a ) ! W ! ~ ! ! ! ! ! W W ! ! W W ! W Q Q Q W W W W ! ! W Q ! T a ",
") ( ~ ! ~ ~ ~ ^ ~ ~ ~ ~ ~ ~ ~ ~ ( ~ ! ! ~ ~ ! ~ ! ! ! ! ! ^ E i _ ~ ~ ~ ~ ~ ^ ~ ~ ~ ~ ~ ~ ~ ~ ! / ~ ~ ! ~ ! ~ ! ! ! ! ! ! ( R i ",
") _ ( ! ~ ( ~ ~ ! ! ~ / ~ ~ ~ ! ^ ~ ~ ~ ~ ~ Q ~ ~ ~ ^ ^ ~ ( Y r ) _ ) ! ~ ~ ~ ~ ! ! ~ ~ ^ ~ ~ ! ~ ~ ~ ~ ~ ~ ! ~ ~ ~ ~ ~ ~ / Y t ",
") ` ( ~ ~ ) ( ( ~ ~ ~ ^ ^ ^ ( ( ( ( ^ ( ( ( ^ ~ ^ ( ( ( ^ ) T < _ ` ~ ~ ( ) ~ ( ~ ~ ~ ~ ^ ^ ~ ) ^ ) ^ ( ^ ^ ~ ~ / ( ~ ) ^ ) Y < ",
") ' ) ) ) ) ( ) ) ( ( ) ) ( ) ` _ _ ( ( ( ) ( ( ( ) ( ) ' ' E < ) ` ) ) ) ) ( ) ) ) ^ ) ) ) ) ` _ ` ( ) ( ) ) ^ ) ) ( ) ' ' E < ",
"' x.` ` ' ' ` ` ` ' _ ) ` _ ` ' ' ' ' x.` ` ` ) _ ` ) _ ' x.! , ' c.' ` ' ' ` ' ` ` ) ` _ ) _ ' ' ' ` x.` ' ` ` _ ` ) _ ' ' W < ",
"` x.` ' ` ' ` ` ) ) ) ` ' ` ' ' ' ' ` ' ` ` ) ) ` ' ` ' ' ' ! > ' ' _ ` ` ' _ ` ) ) ) ` ' ` ' ' ' ' ` ' ` ` ( ) _ ' ` ' x.' Q > ",
"' x.' ' ` ' ` ` ' ` ) _ ' ` ' ' ' ' ` ' ' ` ` _ ` ' ` ' x.' ~ = ' ' ' ' ` ' ` ` ` ' _ ` ' ' ' ' ' ' ` ' ` ` ' _ ` ' ' ' x.' ( ; ",
"c.x.' ' ' ' ' _ ` ` _ _ ' ' x.x.' ' x.' ' _ ` ` _ ' ' x.x.' ^ & c.x.' ' ' x.' ` ` ` _ ) ' ' x.x.' ' ' ' ` _ ` ` _ ' ' x.' ' ^ & ",
"x.' ' ` ' ' ' ` ) ) ) _ ` ' ' ' ' _ ' ` ` _ ) ) _ ` ' ' ' ` ~ = c.' ' ` ' ` ` ` ) ) ) ) ' ' ' ' ' _ ' ' ' ` ) ) _ ` ' ' ' ` ~ ; ",
"x.' ' ` ' ' ` ` ) ) ` _ ` _ ' ` ' ' ' ` ` ' ) ` ) ` ` ' ' ' ( < x.x.' ` ' ` ' ` ) ) ` _ _ _ ` ' ` ' ' ' ` ` ) ` _ _ _ ' ' ' ^ , ",
"c.x.` ) ' ' ` ' ' ' ' ` ` _ ' ' ` ` ' ' ` ' ' x.` ` ' ' x.` ( < c.x.` ` ' ' ` ' ' ' ' ` ` ' ' ' ` ` ' ' ` ' ' x.` ` ` ` x.` ^ e ",
"' ' ` ` ` ` ` ' ` ` ' ` ` ) ) ` ) ` ` ` ` ' ` ' ` ` ( ) ` ) ~ r ' ' ` _ ` _ ` ' ` ' ' ` ) ) ) ` ) ` ` ` ` ' ` ' ) ` ) ) ` ) ^ e ",
"x.x.x.' ' ' ' x.` ` x.` ` ) ) ) _ ) ` ' ' ' ` ' ` ` ) ) ) ) ~ t x.' x.' ' ' ' ' ` ` x.` ` ) ) ) ) ) ' ' x.' ` ' ` ` ) ` ) ) ! r ",
"' ' ' ) ` ` ` ` ` ` ' ' ) ` ' ' ` ` ` ` ' ' ` ' ` _ ` ' ' ` ~ t ' ' ' ` ` ` ' ' ` ` ' ' ) ` ' ' ' ) ` ` ` ' ` ' ' ` ` ` ' ' ( 9 ",
"' ' ' ` ` ) ` ` ' ` _ ` ' _ _ ' ` ` ` ) ` ` ' ` ` ` _ _ ' ` ~ t ' ' ` ` ) _ ` ` ` ' ` ` ' _ _ ' ` ` ` ) ` ` ` ` ) ' ) ` ' ) ^ r ",
"' ' ' ` ` ` ' ` ` ` ) ) _ _ _ _ ` ` ` ` ` ` ` _ _ _ _ ` ` ` ) t x.' ' ' ` ` ` _ ) _ ) ) _ _ _ _ ` ` ` ` ` ` ` ` ) ` ` ` ' ' ) r ",
"' ' ' ' ` ) ' ' ` ' ' ' ' _ ' _ ` ` ` ) ' ` ` ` ` ` ` ` ` ` / t ' ' ' ' ` ` ' ' ' ' _ ' ' _ ' _ ` ` ` ) ' ' ' ' x.' ' ' ` ' ( r ",
"` ` ` ` ) ) ` ) ` ) ) ) ) ) _ ' ` ` ) ) ` _ ` ) _ _ _ ' ' ` ( t ` ` ` ` ) ( ` ) ) _ ) ) ) ) ' ' ' ` ) ) ` ) ) ) ) ) ( ' ' ' ) r ",
"' ) ) ` ( ( ) ) ) ) / / ) / ) ( ^ ` ( ( ) ( ) ^ ( ( ( ( ) ( ~ t ` ) ) ` ) ~ ) ) / ) ) ( ) ( ) / ( _ ( / ) ) ( / ^ ( ( ) ( ( ^ r ",
"` ( ^ ^ ( ( ( ( ~ ~ ~ ~ / / ) ~ ^ ^ ^ ^ ( ) ~ ^ ~ / ) / ~ / W < ` ) ^ ^ ( ) ( / ~ ~ ~ ~ / / ( ~ ( ( / / / / / / ^ ( ( ( ( ( E e ",
") ^ ~ ^ ~ ~ ! ~ Q Q Q ~ ~ ~ ! W ! ~ ! ~ ~ ! ! ! ~ ! ~ Q Q ! T t ) ) ! ~ ! ~ ! Q ! ! ! ~ ! ~ Q W ~ ~ ~ ~ ! ~ ! ! ! ^ ! ! Q ~ E r ",
") ^ W ~ ! ! W W Q Q Q Q Q W Q ! W ! ! ! W ! ! ! Q W Q Q ! W I < ) ~ ! ! ! ! W Q Q Q Q Q W Q Q Q W Q Q Q W Q ! ! E ! E ~ Q E P < ",
"/ / W Q W W W W W E E W W W E W E W W W W W W W E W W W W W J < ~ ~ W W W W W W W W W W W W W W W W W W W W W R E E Q E E E K e ",
"I _ ) _ ) ) ) ( ) ) ) / / ) ) ) _ _ ) ) ) ^ ) ( ( / ) ) ) ( a t U ' ) ' ) ) ) / ) ) ( ( ( ( ) ) _ ) ) ) ) ( ( ) ) ( ) ) _ ( a r ",
"a ! W ! W Q W E W W W W E R E E E E W W E W W W Q E E E Q R , e a W W W W Q W W W Q W W W E R E R W W W E E Q E Q E E E E E > r ",
"> e 9 u p i i i i p i y t < : * * o O ; , < r t y u u y y r > : < < r u p i i i i i i u t , : * o o & ; > e r y y u u u u r > > ",
"L / Q ! ! ~ ! ~ ! ~ ! ~ W W s t K ! ~ W ~ ~ ~ ! ~ W Q ~ ~ ! s i K Q ! Q Q ~ Q ~ ~ ! ! ! W W s t K Q ~ W ! ~ ~ ! ~ ! Q ~ ~ Q s i ",
"W / / / ~ ) ( ( ~ ~ ~ ) ^ ) T t W ) ) ^ ~ ~ ~ / ) ) ~ ) ~ ) T a W ) ) / / ) / / ~ ~ ) ) ( ( T t ! ) ) / ^ ~ ~ ( ( ( / ) / / T a ",
", , e u a i i i a i i u t , : = & o & , < < t t y y u y t t , , < < e u a i p p p i i u t < : = o o & ; < < t t y y y y t t , : ",
". o o 8 o.-.#.=.5.h o & o o j 6.&.o.*. .1 X & o # X.>.:.5.f.j o o o . f e.;.O.O.[ + . o . o j 6.&.o.*.X.$ X O X $ X.>.-.*.>.g . ",
"o o 8 o.:.0.q.l.v & = ; & m f.r.w.y.<.3 % ; % 4 ,.r.-.3.l.D & & o o j >.*.O.;...1 . o X # S f.r.r.y.<.1 % ; % 4 -.r.-.-.r.Z o o ",
"o 2 &.-.<.h.z.G , ; ; & b j.a.a.l.9.0 & ; % q 8.r.3.3.p.S ; = ; & M k.-.*.;.#.1 . o . 1  .j.s.a.l.9.0 % ; % q 8.w.2.3.6.m : * o ",
"8 } o.o.<.g.B - > & ; G q.i.i.j.1.w & > & w 9.a.1.-.9.B = ; ; = N j.j.<.9.@.3 & ; & 3 =.<.i.i.h.9.q - > - q 9.g.1.,.0.B ; * O O ",
"[ } } o.&.m = > - > G 9.,.1.i.1.0 - > - 0 1.h.1.1.2.M = ; , = M 2.7.u.1.$.5 & ; & 9 $.9.=.7.i.1.q - : - 5 1.i.1.1.2.b & ; ; 1 l ",
"] C ] } c = @ = ; B <.$.+.%.@.0 & ; & w $.<.1.,.=.k & ; ; ; v =.@.@.=. .1 % o & $ { @.@. .=.+.0 % > - w $.<.1.,.=.c & ; @ 2 z ] ",
"z V A g o O = % j $.$.+.{ F $ % ; % 1  .@. .+.@.h o o & o c @. . .@.{ 1 % @ % 1 A  .{ {  .F 1 % ; % 4  .@. .@.@.h & o ; 1 l ] x ",
"l z 7 o o o = j @.+.+.+.F $ % @ o 4 {  .{ { +.h X o o o h +.F F { A 1 X o   # m F n m m 7 $ % @ X 4 |  .{ {  .h X o o O j ] x z ",
"z 6 o o o ; h +.F {  .Z $ % @ % $ Z { F F { h % & o o d { F Z Z Z 1 o o X + b Z b b n d   = = & 1 Z F F F { f & & o & d A A n z ",
"; ; : t y t t y y y y r , > = o o o o = ; : < < r r r r < < : ; ; > < r y t t y y y y r < ; ; o o o o o ; : < e e e t e < 3 > & ",
"s I I P P P P I P P P P P P i < s P P P P I U I I P P I I L p r s I P P I I P I P P P P L L i < s P I P I I I P I P L I I I p t ",
"u K K K L L K K K J K K J H @ = y L K J K J K H K K K K K H @ , y L K K K K K K K J J K J H = O y K K K K K K J K K K K K H & , ",
": ; < < t t r t t r 9 r , < ; = ; > , = > : < < < r < < < < ; = ; ; , r t t t t y r 9 e , < ; = > > : ; ; ; , e < < < < < < ; ; "
};
